<?xml version="1.0" encoding="UTF-8"?>
<svg id="Capa_1" data-name="Capa 1" xmlns="http://www.w3.org/2000/svg" viewBox="0 0 711.62 502.86">
  <defs>
    <style>
      .cls-1 {
        fill: #fff;
      }
    </style>
  </defs>
  <path class="cls-1" d="m415.1,236.82c5.59,3.8,12.29,5.73,19.92,5.73,6.56,0,12.53-1.47,17.74-4.37,5.27-2.92,9.44-7.34,12.39-13.12,2.92-5.7,4.4-12.72,4.4-20.85v-9.85h-33.75v11.85h20.34c-.2,4.8-1.14,8.93-2.79,12.31-1.84,3.77-4.38,6.64-7.53,8.54-3.17,1.91-6.81,2.88-10.8,2.88-7.22,0-12.73-2.89-16.84-8.82-4.22-6.08-6.35-14.71-6.35-25.63s2.12-19.68,6.29-25.77c4.07-5.93,9.6-8.82,16.9-8.82,8.83,0,15.55,4.38,20.53,13.4l1.08,1.96,10.8-7.69-.94-1.58c-3.61-6.08-8.03-10.75-13.14-13.91-5.15-3.18-11.32-4.79-18.33-4.79-7.63,0-14.34,1.93-19.92,5.73-5.58,3.79-9.91,9.33-12.88,16.46-2.92,7-4.39,15.46-4.39,25.14s1.48,17.97,4.4,24.89c2.97,7.04,7.3,12.53,12.87,16.32Z"/>
  <path class="cls-1" d="m491.46,210.16c0-4.9.89-9.18,2.64-12.72,1.73-3.5,4.03-6.19,6.83-8.01,2.82-1.83,5.77-2.72,9.04-2.72,1.8,0,3.47.36,4.96,1.07l2.86,1.36v-12.48l-1.39-.44c-2.05-.65-4.21-.98-6.43-.98-4.79,0-9.15,1.36-12.98,4.03-2.03,1.42-3.88,3.15-5.53,5.17v-7.18h-12.61v63.25h12.61v-30.36Z"/>
  <path class="cls-1" d="m520.85,226.16c2.69,5.12,6.48,9.17,11.24,12.05,4.77,2.88,10.27,4.34,16.35,4.34,6.55,0,12.33-1.34,17.16-3.98,4.84-2.64,8.79-6.34,11.74-11l1.05-1.65-10.21-6.81-1.08,1.8c-1.84,3.06-4.3,5.48-7.31,7.2-3.01,1.72-6.92,2.59-11.61,2.59-5.68,0-10.02-1.88-13.28-5.75-2.9-3.44-4.68-7.57-5.29-12.28h48.36l.18-1.8c.09-.92.14-2.19.14-3.87,0-5.88-1.32-11.29-3.91-16.08-2.61-4.81-6.26-8.66-10.85-11.45h0c-4.6-2.8-9.81-4.22-15.47-4.22-6,0-11.44,1.46-16.17,4.34-4.73,2.88-8.47,6.94-11.12,12.05-2.63,5.07-3.96,10.88-3.96,17.25s1.35,12.18,4.03,17.26Zm9.57-24.58c1.04-3.86,2.91-7.15,5.57-9.82,3.14-3.14,7.09-4.67,12.07-4.67s9.16,1.37,12.05,4.08c2.52,2.36,4.27,5.86,5.2,10.4h-34.9Z"/>
  <path class="cls-1" d="m598.56,238.21c4.77,2.88,10.27,4.34,16.35,4.34,6.55,0,12.33-1.34,17.16-3.98,4.84-2.64,8.79-6.34,11.74-11l1.05-1.65-10.21-6.81-1.08,1.8c-1.84,3.06-4.3,5.48-7.31,7.2-3.01,1.72-6.92,2.59-11.61,2.59-5.68,0-10.02-1.88-13.28-5.75-2.9-3.44-4.68-7.57-5.29-12.28h48.36l.18-1.8c.09-.92.14-2.19.14-3.87,0-5.88-1.32-11.29-3.91-16.08-2.61-4.81-6.26-8.66-10.85-11.45-4.6-2.8-9.81-4.22-15.47-4.22-6,0-11.44,1.46-16.17,4.34-4.73,2.88-8.47,6.94-11.12,12.06-2.63,5.07-3.96,10.88-3.96,17.25s1.36,12.18,4.03,17.26c2.69,5.12,6.47,9.17,11.24,12.05Zm-1.67-36.63c1.04-3.86,2.91-7.15,5.57-9.82,3.14-3.14,7.09-4.67,12.07-4.67s9.16,1.37,12.05,4.08c2.53,2.37,4.27,5.86,5.2,10.4h-34.9Z"/>
  <path class="cls-1" d="m666.03,208.9c0-6.8,1.41-12.25,4.19-16.19,2.66-3.77,6.6-5.61,12.04-5.61,9.35,0,13.7,4.96,13.7,15.6v37.83h12.61v-41.62c0-4.83-1.15-9.11-3.41-12.71-2.26-3.6-5.35-6.36-9.18-8.21h0c-3.76-1.81-7.91-2.73-12.33-2.73-4.74,0-9,1.14-12.64,3.4-1.84,1.14-3.5,2.53-4.98,4.16v-5.54h-12.61v63.25h12.61v-31.62Z"/>
  <path class="cls-1" d="m472.34,294.73c0-9.31-1.78-17.46-5.29-24.22-3.55-6.83-8.77-12.12-15.52-15.72-6.68-3.56-14.7-5.36-23.85-5.36h-23.39v90.34h23.39c13.91,0,24.95-4.03,32.82-11.99,7.86-7.95,11.84-19.07,11.84-33.05Zm-54.56-32.56h9.65c9.71,0,17.38,2.66,22.79,7.92,5.39,5.24,8.13,13.53,8.13,24.64s-2.73,19.28-8.13,24.52c-5.41,5.25-13.08,7.92-22.79,7.92h-9.65v-64.99Z"/>
  <path class="cls-1" d="m540.95,310.12c.09-.92.14-2.22.14-3.87,0-5.88-1.32-11.29-3.91-16.08-2.61-4.81-6.26-8.66-10.85-11.45h0c-4.6-2.8-9.81-4.22-15.47-4.22-6,0-11.44,1.46-16.17,4.34-4.73,2.88-8.47,6.94-11.12,12.05-2.63,5.07-3.96,10.88-3.96,17.25s1.35,12.18,4.03,17.26c2.69,5.12,6.48,9.17,11.24,12.05,4.77,2.88,10.27,4.34,16.35,4.34,6.55,0,12.33-1.34,17.16-3.98,4.84-2.64,8.79-6.34,11.74-11l1.05-1.65-10.21-6.81-1.08,1.8c-1.84,3.06-4.3,5.48-7.31,7.2-3.01,1.72-6.92,2.59-11.61,2.59-5.68,0-10.02-1.88-13.28-5.75-2.9-3.44-4.68-7.57-5.29-12.28h48.36l.18-1.8Zm-47.74-9.29c1.04-3.86,2.91-7.15,5.57-9.82,3.14-3.14,7.09-4.67,12.07-4.67s9.16,1.37,12.05,4.08c2.53,2.37,4.27,5.86,5.2,10.4h-34.9Z"/>
  <polygon class="cls-1" points="570.34 322.43 554.3 276.52 541.05 276.52 563.88 339.77 576.18 339.77 599.16 276.52 586.14 276.52 570.34 322.43"/>
  <polygon class="cls-1" points="404.16 348.68 404.16 439.02 456.52 439.02 456.52 427.17 417.65 427.17 417.65 348.68 404.16 348.68"/>
  <path class="cls-1" d="m502.81,437.96c2.2-1.18,4.22-2.64,6.04-4.36v5.42h12.61v-63.25h-12.61v5.48c-1.83-1.76-3.88-3.24-6.12-4.42-3.86-2.04-8.16-3.08-12.77-3.08-6,0-11.44,1.46-16.17,4.34-4.73,2.88-8.46,6.91-11.11,11.98-2.63,5.04-3.96,10.82-3.96,17.19s1.35,12.31,4.03,17.39c2.69,5.12,6.48,9.17,11.24,12.05,4.77,2.88,10.23,4.34,16.23,4.34,4.53,0,8.77-1.04,12.59-3.09Zm-12.84-52.36c3.64,0,6.92.92,9.75,2.72,2.83,1.81,5.08,4.4,6.69,7.67,1.63,3.34,2.46,7.17,2.46,11.4s-.83,8.07-2.46,11.4c-1.6,3.28-3.85,5.86-6.69,7.68-2.82,1.81-6.1,2.72-9.75,2.72s-6.77-.91-9.55-2.72c-2.8-1.82-5.03-4.4-6.63-7.68-1.63-3.33-2.46-7.21-2.46-11.53s.82-8.04,2.45-11.33c1.6-3.24,3.84-5.81,6.64-7.63,2.78-1.8,5.99-2.72,9.55-2.72Z"/>
  <path class="cls-1" d="m596.28,407.27c0-6.37-1.33-12.15-3.96-17.19-2.65-5.07-6.39-9.1-11.11-11.99-4.73-2.88-10.17-4.34-16.17-4.34-4.61,0-8.91,1.04-12.77,3.08-2.24,1.18-4.28,2.66-6.12,4.42v-38.14h-12.61v95.91h12.61v-5.42c1.82,1.72,3.84,3.18,6.04,4.36,3.82,2.05,8.06,3.09,12.59,3.09,6,0,11.45-1.46,16.22-4.34,4.77-2.88,8.55-6.93,11.24-12.05,2.67-5.08,4.03-10.93,4.03-17.39Zm-31.24,21.93c-3.64,0-6.92-.92-9.75-2.72-2.84-1.82-5.09-4.4-6.69-7.68-1.63-3.34-2.46-7.17-2.46-11.4s.83-8.07,2.46-11.4c1.6-3.28,3.85-5.86,6.69-7.68,2.82-1.81,6.1-2.72,9.75-2.72s6.77.91,9.54,2.72c2.8,1.82,5.04,4.38,6.64,7.63,1.63,3.29,2.45,7.11,2.45,11.33s-.83,8.19-2.46,11.53c-1.6,3.28-3.84,5.87-6.63,7.68-2.78,1.8-5.99,2.72-9.54,2.72Z"/>
  <path class="cls-1" d="m650.27,431.76c2.56-3.18,3.86-7.03,3.86-11.45,0-5.5-2.1-10-6.24-13.39-3.97-3.24-9.98-5.24-17.87-5.95-5.7-.48-9.69-1.49-11.88-3-1.96-1.36-2.88-2.99-2.88-5.13,0-2.31.83-3.96,2.62-5.19,1.97-1.36,4.97-2.05,8.93-2.05s7.14.72,9.56,2.13c2.38,1.39,4.16,3.53,5.44,6.53l.83,1.94,11.36-5.59-.8-1.77c-4.56-10.02-13.22-15.1-25.75-15.1-7.34,0-13.24,1.67-17.55,4.97-4.47,3.42-6.73,8.26-6.73,14.37,0,5.49,2.01,9.97,5.96,13.3,3.86,3.26,9.92,5.19,18.52,5.91,6.76.59,9.83,1.91,11.21,2.92,1.79,1.3,2.66,3.3,2.66,6.11,0,2.66-1.04,4.47-3.28,5.72-2.55,1.43-5.89,2.15-9.91,2.15-8.35,0-13.76-2.89-16.54-8.85l-.86-1.85-11.37,5.59.92,1.81c2.45,4.81,6.06,8.58,10.74,11.22,4.63,2.61,10.05,3.93,16.11,3.93,4.61,0,8.98-.77,12.99-2.28,4.12-1.55,7.47-3.91,9.96-7.01Z"/>
  <path class="cls-1" d="m235.47,179.61l24.74-24.74c6.87,4.77,15.21,7.58,24.19,7.58,23.44,0,42.5-19.07,42.5-42.5s-19.07-42.5-42.5-42.5-42.5,19.07-42.5,42.5c0,7.95,2.2,15.39,6.01,21.76l-30.44,30.44v133.37h18v-125.92Zm48.93-84.16c13.51,0,24.5,10.99,24.5,24.5s-10.99,24.5-24.5,24.5-24.5-10.99-24.5-24.5,10.99-24.5,24.5-24.5Z"/>
  <path class="cls-1" d="m127.57,84.04v57.16l44.68,42.14v149.59h18v-157.36l-44.68-42.14v-49.39c19.13-4.14,33.5-21.19,33.5-41.53,0-23.44-19.07-42.5-42.5-42.5s-42.5,19.07-42.5,42.5c0,20.35,14.38,37.39,33.5,41.53Zm9-66.04c13.51,0,24.5,10.99,24.5,24.5s-10.99,24.5-24.5,24.5-24.5-10.99-24.5-24.5,10.99-24.5,24.5-24.5Z"/>
  <path class="cls-1" d="m312.2,174.67c-23.44,0-42.5,19.07-42.5,42.5,0,8.05,2.25,15.59,6.16,22.01l-19.46,19.46v48.66l-25.9,22.5,11.8,13.59,32.1-27.88v-49.41l13.84-13.84c6.83,4.68,15.08,7.42,23.96,7.42,23.44,0,42.5-19.07,42.5-42.5s-19.07-42.5-42.5-42.5Zm0,67c-13.51,0-24.5-10.99-24.5-24.5s10.99-24.5,24.5-24.5,24.5,10.99,24.5,24.5-10.99,24.5-24.5,24.5Z"/>
  <path class="cls-1" d="m42.5,314.52c9.22,0,17.75-2.96,24.72-7.96l40.17,38.44,12.44-13.01-40.53-38.78c3.61-6.24,5.69-13.48,5.69-21.2,0-23.44-19.07-42.5-42.5-42.5S0,248.59,0,272.02s19.07,42.5,42.5,42.5Zm0-67c13.51,0,24.5,10.99,24.5,24.5s-10.99,24.5-24.5,24.5-24.5-10.99-24.5-24.5,10.99-24.5,24.5-24.5Z"/>
  <path class="cls-1" d="m76,204.99c7.87,0,15.25-2.16,21.58-5.91l29.99,31.23v72.11h18v-79.35l-34.77-36.21c4.85-6.91,7.71-15.31,7.71-24.37,0-23.44-19.07-42.5-42.5-42.5s-42.5,19.07-42.5,42.5,19.07,42.5,42.5,42.5Zm0-67c13.51,0,24.5,10.99,24.5,24.5s-10.99,24.5-24.5,24.5-24.5-10.99-24.5-24.5,10.99-24.5,24.5-24.5Z"/>
  <rect class="cls-1" x="198.27" y="77.75" width="18" height="59.26"/>
  <path class="cls-1" d="m225.67,478.13v-77.18c14.17-1.15,25.35-13.05,25.35-27.52,0-15.22-12.38-27.61-27.61-27.61h-95.63c-15.22,0-27.61,12.38-27.61,27.61s11.18,26.37,25.35,27.52v77.91c-56.79-20.46-95.51-74.8-95.51-136.03H12.01c0,73.35,49.41,137.9,120.17,156.98l11.34,3.06v-101.82h18.19v-18h-27.2s-6.74,0-6.74,0c-5.3,0-9.61-4.31-9.61-9.61s4.31-9.61,9.61-9.61h95.63c5.3,0,9.61,4.31,9.61,9.61s-4.31,9.61-9.61,9.61h-6.75s-18.77,0-18.77,0v18h9.78v101.45l11.46-3.26c33.34-9.48,63.38-29.92,84.57-57.58,21.9-28.57,33.47-62.74,33.47-98.83h-18c0,60.27-37.89,114.28-93.51,135.3Z"/>
</svg>